<svg width="85" height="80" viewBox="0 0 85 80" fill="none" xmlns="http://www.w3.org/2000/svg">
<path d="M29.3639 21.0239V25.124L29.0606 25.3481C27.4801 26.5205 25.8674 28.7114 24.8611 31.0434C24.2031 32.5745 23.8999 33.6892 23.6419 35.5599C23.4806 36.7578 23.4806 39.6791 23.6483 40.717C24.3063 44.8619 26.3384 47.969 29.7703 50.083C30.7186 50.666 31.8797 51.2041 32.6603 51.422C33.0667 51.5309 33.4279 51.6398 33.4602 51.6655C33.5054 51.6911 33.3635 52.8827 33.0345 55.2274C32.757 57.1621 32.5313 58.7765 32.5313 58.8085C32.5249 58.8405 32.3313 58.847 32.0927 58.8277C31.8475 58.8085 31.1766 58.7444 30.5896 58.6931C28.7833 58.5265 26.1965 58.4496 24.9579 58.5265C19.6101 58.8469 15.9587 59.59 13.8815 60.7751C13.301 61.1147 12.1785 62.0179 11.6559 62.5753C10.3657 63.959 9.81096 65.2146 9.7077 66.9957C9.68186 67.4954 9.68837 67.6876 9.73995 67.6876C9.78512 67.6876 9.95928 67.4057 10.1334 67.0597C11.8494 63.6644 14.6556 61.9219 19.5261 61.2236C20.3434 61.1062 21.1323 61.0122 21.8906 60.9416C21.8674 61.0667 21.8559 61.2029 21.8559 61.3502C21.8559 61.6748 21.8763 62.0035 21.9172 62.3362C21.9581 62.6688 21.9948 62.9975 22.0275 63.3221C22.0601 63.6305 22.0929 63.9347 22.1255 64.235C22.1582 64.5353 22.1746 64.8395 22.1746 65.1479C22.1746 65.6023 22.1664 66.0486 22.1501 66.4869C22.1338 66.9251 22.1092 67.3714 22.0766 67.8258C22.0275 68.6536 22.003 69.4893 22.003 70.3332C22.0684 70.7552 22.1134 71.2178 22.1379 71.7208C22.1623 72.224 22.2032 72.6906 22.2604 73.1206C22.3176 73.5507 22.4279 73.9117 22.5914 74.2038C22.7548 74.496 23.0081 74.6421 23.3513 74.6421C23.4493 74.6421 23.5924 74.6502 23.7803 74.6664C23.9682 74.6826 24.1643 74.6988 24.3686 74.7151C24.5729 74.7313 24.7608 74.7475 24.9325 74.7638C25.104 74.78 25.2144 74.7881 25.2634 74.7881C25.4268 74.7881 25.7088 74.7678 26.1091 74.7272C26.5095 74.6866 26.914 74.6095 27.3226 74.496C27.7312 74.3824 28.0908 74.2323 28.4012 74.0456C28.7117 73.859 28.867 73.6196 28.867 73.3275C28.867 73.1165 28.822 72.9177 28.7321 72.7311C28.6423 72.5444 28.536 72.3659 28.4134 72.1955C28.2909 72.0252 28.1683 71.8507 28.0457 71.6721C27.9231 71.4936 27.8373 71.2988 27.7883 71.0879C27.7229 70.8444 27.6616 70.5279 27.6044 70.1384C27.5472 69.7489 27.4941 69.331 27.4451 68.8847C27.3961 68.4384 27.3553 67.9758 27.3225 67.4971C27.2898 67.0184 27.2653 66.568 27.249 66.146C27.2327 65.9674 27.2245 65.7605 27.2245 65.5252C27.2245 65.2899 27.2245 65.0506 27.2245 64.8071C27.2245 64.239 27.2368 63.6548 27.2612 63.0543C27.2857 62.4538 27.3225 61.9507 27.3716 61.545C28.4175 61.4963 29.4798 61.472 30.5583 61.472C30.5583 61.7803 30.5787 62.0846 30.6196 62.3849C30.6605 62.6851 30.6972 62.9894 30.73 63.2978C30.7626 63.6062 30.7953 63.9105 30.828 64.2107C30.8607 64.511 30.877 64.8152 30.877 65.1236C30.877 65.2696 30.877 65.4116 30.877 65.5497C30.877 65.6876 30.8689 65.8215 30.8526 65.9513C30.8198 66.6816 30.7872 67.4079 30.7546 68.1301C30.7218 68.8523 30.7055 69.5785 30.7055 70.3088C30.7709 70.7309 30.8158 71.1934 30.8403 71.6964C30.8648 72.1996 30.9057 72.6661 30.9629 73.0962C31.0201 73.5263 31.1305 73.8873 31.2938 74.1795C31.4572 74.4716 31.7105 74.6177 32.0538 74.6177C32.1518 74.6177 32.2949 74.6258 32.4828 74.6421C32.6708 74.6583 32.8669 74.6746 33.0712 74.6908C33.2754 74.707 33.4634 74.7233 33.635 74.7395C33.8067 74.7557 33.9169 74.7638 33.966 74.7638C34.1294 74.7638 34.4113 74.7435 34.8117 74.7029C35.2121 74.6623 35.6166 74.5852 36.0251 74.4716C36.4336 74.358 36.7932 74.2079 37.1038 74.0212C37.4143 73.8346 37.5695 73.5952 37.5695 73.3031C37.5695 73.0921 37.5245 72.8933 37.4347 72.7067C37.3449 72.52 37.2386 72.3415 37.116 72.1711C36.9934 72.0007 36.8749 71.8263 36.7606 71.6477C36.6462 71.4692 36.5645 71.2744 36.5154 71.0634C36.4337 70.7389 36.3561 70.2885 36.2826 69.7123C36.2091 69.1362 36.1437 68.5397 36.0865 67.9231C36.0293 67.3063 35.9843 66.7058 35.9517 66.1216C35.9189 65.5373 35.9026 65.0748 35.9026 64.734C35.9026 64.1822 35.9271 63.6385 35.9761 63.1029C36.0088 62.827 36.0334 62.547 36.0497 62.263L36.0516 62.2292C37.7968 62.4903 38.983 62.5624 40.7954 62.5624C50.1718 62.5624 56.8114 57.9457 63.9739 57.9306C67.0124 57.9306 69.5025 58.4111 72.5216 59.5963C73.9603 60.1606 87.7175 64.589 84.5206 57.9883C82.9833 54.8145 75.465 52.4412 71.9797 52.1777C71.4829 52.1392 70.8443 52.088 70.5605 52.0688L70.0508 52.0239L71.012 51.2296C72.799 49.7497 73.6763 48.7503 74.3536 47.4242C74.7278 46.6939 75.1793 45.3934 75.3019 44.7143C75.6697 42.6002 74.102 41.5816 72.5732 42.9462C72.1668 43.3114 71.8507 43.7854 71.3991 44.7208C70.4701 46.6235 70.1606 47.9111 70.0057 50.5506C69.9412 51.6909 69.8961 52.0945 69.838 52.0368C69.8251 52.024 69.6961 51.4346 69.5542 50.7235C69.1412 48.6287 68.9348 47.9431 68.4253 46.931C67.9027 45.8995 66.6771 44.2275 66.0513 43.6958C64.4321 42.312 62.3098 42.6771 62.1549 44.3749C62.1034 44.8745 62.2194 45.3038 62.6194 46.1366C63.0774 47.0976 63.6 47.8599 64.2967 48.5903C65.2708 49.6089 66.2127 50.2367 68.6705 51.5116C69.1995 51.7806 69.6189 52.0113 69.6059 52.0241C69.593 52.0369 69.064 52.0818 68.4254 52.1202C64.0903 52.3828 59.6004 53.5039 54.2654 55.6629C50.1238 57.3349 44.9694 58.8276 41.8472 59.2568C40.9569 59.3786 39.1119 59.5195 39.0603 59.4683C39.0345 59.4362 38.312 56.2459 37.4669 52.402L37.4218 52.2034L38.5056 52.1649C41.6408 52.0624 44.8018 50.9542 48.0402 48.8337C49.0272 48.1866 49.6787 47.6484 50.6593 46.6811C51.7624 45.5793 52.3366 44.8425 52.8075 43.92C53.2204 43.1064 53.3494 42.5363 53.2332 42.075C53.0203 41.2166 52.1237 40.8451 51.4269 41.3255C51.285 41.4216 50.9367 41.7868 50.6464 42.1392C50.3561 42.4851 50.111 42.7606 50.0981 42.7477C50.0787 42.7349 50.1432 42.4531 50.2336 42.1199C50.4851 41.1845 50.4336 40.7937 49.982 40.2877C49.3692 39.5958 48.5369 39.5894 47.9176 40.2685C47.5693 40.6464 47.4209 40.9988 47.2596 41.7868C47.0016 43.0745 46.5629 43.7472 45.7243 44.1379C44.8663 44.548 44.0276 44.6761 43.0407 44.5672C41.5182 44.3878 40.5893 43.997 39.7764 43.1898C39.4667 42.8823 39.1571 42.4979 39.0152 42.2481C38.3249 41.0117 38.0668 39.3653 38.3572 38.0263C38.6475 36.6617 39.1636 35.4317 40.286 33.4073C41.3053 31.5686 41.4666 31.0625 41.4085 29.8902C41.3634 28.9933 41.215 28.4296 40.7828 27.5454C40.2151 26.3795 39.2991 25.348 38.1637 24.5985L37.6218 24.2398L37.6089 20.5882L37.5895 16.9366L35.6026 20.0692C34.5059 21.7861 33.5834 23.2404 33.5447 23.2916C33.5125 23.3428 33.4673 23.3621 33.4544 23.3236C33.4156 23.2404 29.4418 17.0005 29.3967 16.9621C29.3774 16.9429 29.3639 18.7689 29.3639 21.0239ZM51.5171 5.16323C51.8338 5.91572 52.0861 6.63329 52.2739 7.31595C52.4618 7.9986 52.6195 8.67518 52.7471 9.34558C52.7892 9.78332 52.7641 10.2407 52.6716 10.7179C52.5791 11.1951 52.4348 11.6568 52.2386 12.103C52.1771 12.1788 52.1066 12.2485 52.0271 12.3118C51.9477 12.3752 51.8631 12.4342 51.7735 12.4885C51.165 12.7838 50.5512 13.0536 49.9324 13.2979C49.3134 13.5421 48.6864 13.7781 48.0512 14.0061C47.8611 14.0541 47.6511 14.0888 47.4211 14.1104C47.1911 14.1318 46.9854 14.1032 46.8042 14.0246C46.7333 13.9938 46.6679 13.9608 46.6084 13.9257C46.5487 13.8905 46.5012 13.828 46.4657 13.738C46.2719 13.3464 46.0887 12.9571 45.9163 12.5701C45.7439 12.1831 45.6098 11.794 45.5142 11.4031C45.4187 11.0121 45.3697 10.611 45.3675 10.2C45.3652 9.78891 45.4373 9.36352 45.5838 8.92366C45.8386 8.49354 46.1906 8.0613 46.6396 7.62694C47.0888 7.19257 47.585 6.79496 48.1285 6.4341C48.672 6.07324 49.239 5.77624 49.8296 5.54299C50.4202 5.30975 50.9828 5.1832 51.5171 5.16323ZM48.9951 12.7238C49.066 12.7546 49.1429 12.7506 49.2256 12.712C49.3084 12.6733 49.3901 12.6155 49.4708 12.5386C49.5515 12.4617 49.6286 12.3717 49.7021 12.2684C49.7757 12.1652 49.8445 12.0622 49.9084 11.9595C50.0426 11.6542 50.1295 11.3284 50.1693 10.982C50.2089 10.6357 50.224 10.2812 50.2147 9.91827C50.2053 9.55538 50.1767 9.19346 50.129 8.8325C50.0812 8.47155 50.0313 8.12602 49.9794 7.79593C49.9482 7.568 49.8844 7.36099 49.7879 7.17463C49.6915 6.98836 49.5565 6.85766 49.3832 6.78242C49.2964 6.7448 49.2061 6.7476 49.1121 6.79072C49.018 6.83383 48.9255 6.9055 48.8345 7.00582C48.7434 7.10614 48.6543 7.22363 48.567 7.3582C48.4796 7.49276 48.405 7.6305 48.3431 7.77143C48.2639 7.95153 48.2101 8.13789 48.1816 8.33062C48.1532 8.52335 48.1265 8.71222 48.1015 8.89703C48.0647 9.1514 48.0604 9.45477 48.0885 9.80714C48.1165 10.1595 48.17 10.5183 48.2487 10.8833C48.3275 11.2484 48.4305 11.5959 48.5575 11.9259C48.6846 12.256 48.8305 12.5219 48.9951 12.7238ZM57.1124 20.4481C57.2426 20.3003 57.2752 20.1499 57.2101 19.9968C57.1449 19.8437 56.9991 19.6687 56.7725 19.4718L53.1799 16.3501C52.9857 16.1814 52.7557 16.0921 52.4899 16.0825C52.2241 16.0729 51.9482 16.1168 51.6621 16.2145C51.3761 16.3121 51.0864 16.4463 50.7931 16.6171C50.4997 16.7878 50.2295 16.9615 49.9823 17.1384C49.7351 17.3152 49.5194 17.4852 49.3354 17.6488C49.1513 17.8123 49.0224 17.9359 48.9488 18.0194C48.8905 17.7873 48.9059 17.5395 48.9949 17.2764C49.0839 17.0133 49.1954 16.7667 49.3294 16.5369C49.4633 16.3072 49.5992 16.1075 49.7371 15.9379C49.875 15.7683 49.9639 15.6611 50.0036 15.6161C50.2641 15.3205 50.5002 15.0687 50.7118 14.861C50.9233 14.6533 51.1266 14.5036 51.3217 14.412C51.5167 14.3204 51.7133 14.2983 51.9115 14.3457C52.1098 14.3932 52.3286 14.5209 52.5682 14.7291C52.5924 14.7274 52.613 14.717 52.63 14.6977C52.647 14.6784 52.6612 14.6623 52.6725 14.6495C52.899 14.3923 53.1863 14.1993 53.5343 14.0703C53.8822 13.9414 54.254 13.8502 54.6496 13.7967C55.0453 13.7432 55.4456 13.7137 55.8506 13.7081C56.2555 13.7025 56.6283 13.6944 56.969 13.684C57.1025 13.6752 57.2302 13.6697 57.352 13.6678C57.4738 13.6658 57.58 13.6133 57.6706 13.5105C57.7612 13.4076 57.8417 13.2676 57.9121 13.0904C57.9826 12.9132 58.0406 12.7339 58.0863 12.5522C58.1321 12.3707 58.162 12.2037 58.1762 12.0514C58.1903 11.8992 58.1865 11.7965 58.1646 11.7435C58.1719 11.6704 58.1605 11.5924 58.1306 11.5097C58.1007 11.4269 58.0736 11.3409 58.0493 11.2517C58.025 11.1625 58.0086 11.0773 58.0002 10.9962C57.9916 10.9151 58.0157 10.8424 58.0723 10.778C58.1347 10.7073 58.2087 10.6752 58.2945 10.6816C58.3802 10.688 58.4636 10.7036 58.5445 10.7285L60.132 11.3589C60.1571 11.3693 60.1903 11.3869 60.2316 11.4114C60.2729 11.4359 60.3159 11.4648 60.3609 11.4982C60.4058 11.5316 60.4459 11.5607 60.481 11.5856C60.5162 11.6105 60.5403 11.6286 60.5532 11.6398C60.7668 11.8254 60.9086 12.031 60.9786 12.2563C61.0487 12.4817 61.0782 12.7174 61.0672 12.9632C61.0563 13.2091 61.0181 13.4568 60.9525 13.7063C60.887 13.9558 60.8316 14.1971 60.7862 14.43C60.711 14.7619 60.6201 15.0888 60.5138 15.4106C60.4074 15.7323 60.2933 16.0532 60.1715 16.3729C60.0497 16.6927 59.9249 17.0128 59.797 17.333C59.6692 17.6533 59.5522 17.9773 59.4463 18.3052C59.3962 18.4659 59.3399 18.6497 59.2776 18.8566C59.2152 19.0635 59.1632 19.2652 59.1216 19.4617C59.0799 19.6582 59.0491 19.8358 59.0293 19.9945C59.0095 20.1531 59.0141 20.2678 59.0433 20.3386C59.108 20.4856 59.1806 20.614 59.2611 20.7237C59.3417 20.8334 59.4167 20.9299 59.4863 21.013C59.5558 21.0961 59.619 21.1737 59.6756 21.2457C59.7322 21.3176 59.7719 21.3861 59.7946 21.4511C59.5098 21.476 59.1861 21.5353 58.8237 21.6289C58.4611 21.7225 58.0949 21.8269 57.7246 21.9423C57.3544 22.0576 56.9954 22.1798 56.6474 22.3088C56.2994 22.4377 56.0012 22.5589 55.7529 22.6721C55.646 22.7155 55.5344 22.7547 55.4179 22.7896C55.3013 22.8245 55.1888 22.8516 55.0804 22.8709C54.972 22.8902 54.8765 22.898 54.794 22.8945C54.7114 22.8909 54.6508 22.8722 54.6119 22.8384C54.5408 22.7766 54.5197 22.7128 54.5488 22.6474C54.578 22.5819 54.6152 22.5235 54.6605 22.4721C54.8304 22.2792 55.0226 22.1 55.237 21.9345C55.4515 21.769 55.6692 21.6092 55.8906 21.4554C56.1119 21.3015 56.3284 21.1434 56.54 20.9811C56.7515 20.8187 56.9424 20.641 57.1124 20.4481ZM57.0821 14.4119C56.8296 14.4649 56.5871 14.5294 56.3544 14.6053C56.1218 14.6812 55.8892 14.7799 55.6565 14.9012C55.4239 15.0226 55.1811 15.1749 54.9283 15.3581C54.6755 15.5413 54.4058 15.7695 54.1194 16.0427L56.3623 17.9917C56.44 17.7868 56.5073 17.6098 56.5644 17.4607C56.6214 17.3117 56.6814 17.1367 56.744 16.9358C56.8068 16.7349 56.8763 16.4776 56.9528 16.1638C57.0292 15.85 57.1282 15.4167 57.2495 14.8639C57.273 14.7594 57.2639 14.6693 57.2222 14.5933C57.1805 14.5174 57.1338 14.4569 57.0821 14.4119ZM64.1381 26.5065C64.3683 26.4111 64.5982 26.3206 64.8278 26.2347C65.0573 26.1489 65.2905 26.0661 65.5273 25.9865C65.5159 25.6488 65.4918 25.314 65.4548 24.9823C65.418 24.6504 65.4242 24.3216 65.4738 23.9957C65.2707 24.089 65.0553 24.1922 64.8278 24.3049C64.6003 24.4177 64.3823 24.5311 64.174 24.6452C63.9656 24.7593 63.7719 24.8696 63.593 24.9762C63.4141 25.0827 63.2717 25.1764 63.1659 25.2573C63.0727 25.3236 62.9947 25.4046 62.9323 25.4999C62.8698 25.5952 62.8093 25.6897 62.7507 25.7833C62.6923 25.8769 62.6264 25.9643 62.5534 26.0456C62.4803 26.1268 62.3921 26.1887 62.289 26.2314C62.1461 26.2907 61.9976 26.2642 61.8433 26.1522C61.6891 26.0403 61.5428 25.8973 61.4045 25.7232C61.2661 25.5492 61.1464 25.3697 61.0455 25.1847C60.9445 24.9998 60.8774 24.868 60.8443 24.7892C60.8344 24.7655 60.816 24.7106 60.7891 24.6246C60.7623 24.5385 60.7321 24.4446 60.6987 24.3427C60.6652 24.2409 60.6334 24.1431 60.6033 24.0491C60.5732 23.9552 60.5482 23.8845 60.5283 23.8373C60.4588 23.6717 60.4789 23.5199 60.5887 23.3819C60.6984 23.2439 60.8527 23.1175 61.0515 23.0027C61.2502 22.888 61.4702 22.7737 61.7113 22.66C61.9524 22.5461 62.1696 22.4308 62.3627 22.3138C62.7755 22.1427 63.1893 21.9852 63.6041 21.8411C63.833 21.7648 64.0562 21.6862 64.2739 21.6053C64.4916 21.5243 64.7115 21.4379 64.9338 21.3458C65.0847 21.2833 65.2302 21.2137 65.3704 21.1371C65.5107 21.0606 65.6529 20.9831 65.797 20.9049C65.9492 20.8234 66.1025 20.739 66.257 20.6518C66.4114 20.5647 66.568 20.4883 66.7268 20.4225C66.9729 20.3205 67.1827 20.3099 67.3565 20.3906C67.5302 20.4714 67.6651 20.6261 67.7612 20.8547C67.8771 21.1306 67.9843 21.4078 68.0826 21.6864C68.181 21.965 68.2785 22.2415 68.3753 22.5161C68.3363 22.6896 68.2678 22.8152 68.17 22.8927C68.0721 22.9703 67.9478 23.0403 67.7969 23.1028C67.662 23.1588 67.5234 23.2115 67.3812 23.2612C67.239 23.3109 67.0971 23.3557 66.9555 23.396C66.755 23.4512 66.5595 23.5184 66.369 23.5973C66.3017 23.9029 66.2671 24.2365 66.2652 24.5982C66.2634 24.9599 66.2748 25.3254 66.2994 25.6946C66.3662 25.6762 66.4334 25.653 66.5009 25.6251C66.5683 25.5971 66.6378 25.5684 66.7092 25.5388C66.8601 25.4762 67.0056 25.4067 67.1458 25.3301C67.2861 25.2535 67.4283 25.1761 67.5724 25.0978C67.7246 25.0163 67.8779 24.9319 68.0324 24.8448C68.1868 24.7577 68.3434 24.6812 68.5022 24.6154C68.7483 24.5135 68.9582 24.5029 69.1319 24.5836C69.3056 24.6643 69.4405 24.8191 69.5366 25.0477C69.6525 25.3235 69.7596 25.6008 69.858 25.8794C69.9564 26.1579 70.0539 26.4345 70.1507 26.7091C70.1117 26.8825 70.0433 27.0081 69.9454 27.0857C69.8475 27.1632 69.7232 27.2333 69.5723 27.2958C69.4374 27.3517 69.2988 27.4045 69.1566 27.4542C69.0144 27.5038 68.8725 27.5487 68.7309 27.5889C68.459 27.6738 68.1881 27.7721 67.9182 27.884C67.7515 27.9531 67.5285 28.0546 67.2494 28.1889C66.9702 28.3231 66.6856 28.4664 66.3956 28.619C66.1055 28.7716 65.8271 28.924 65.5601 29.0763C65.2932 29.2285 65.0887 29.3572 64.9464 29.4624C64.8532 29.5288 64.7745 29.6077 64.7104 29.699C64.6463 29.7904 64.5849 29.8829 64.5264 29.9765C64.468 30.0702 64.4021 30.1576 64.3291 30.2388C64.256 30.32 64.1678 30.382 64.0647 30.4247C63.9218 30.4839 63.7733 30.4575 63.619 30.3456C63.4648 30.2336 63.3185 30.0906 63.1802 29.9165C63.0419 29.7425 62.9221 29.563 62.8212 29.3781C62.7202 29.1932 62.6531 29.0613 62.62 28.9825C62.6101 28.9589 62.5916 28.904 62.5648 28.8179C62.538 28.7319 62.5078 28.6379 62.4744 28.5361C62.4409 28.4342 62.4091 28.3364 62.379 28.2424C62.3489 28.1484 62.3239 28.0778 62.3039 28.0305C62.2344 27.865 62.2545 27.7132 62.3643 27.5751C62.474 27.4371 62.6283 27.3107 62.8271 27.1959C63.0258 27.0812 63.2458 26.967 63.4869 26.8531C63.728 26.7394 63.945 26.6235 64.1381 26.5065ZM72.3309 33.8349C72.3433 33.8589 72.3573 33.8935 72.3731 33.9387C72.3887 33.9838 72.403 34.0335 72.4157 34.0877C72.4284 34.1419 72.4402 34.1898 72.451 34.2314C72.4618 34.273 72.4685 34.3022 72.4711 34.3191C72.5141 34.5978 72.4893 34.8457 72.3967 35.0628C72.304 35.28 72.1738 35.4791 72.006 35.6603C71.8382 35.8414 71.6483 36.0064 71.4364 36.1554C71.2245 36.3044 71.0256 36.4535 70.8398 36.6028C70.5671 36.8086 70.2856 37.0005 69.9954 37.1787C69.7053 37.3568 69.41 37.5293 69.1095 37.6961C68.809 37.8629 68.5059 38.0278 68.2004 38.191C67.8949 38.3542 67.5954 38.5273 67.3016 38.7104C67.159 38.8013 66.9968 38.9059 66.815 39.0244C66.6332 39.1428 66.4626 39.2639 66.3033 39.3874C66.144 39.5111 66.0053 39.6272 65.8873 39.736C65.7692 39.8447 65.6984 39.9354 65.6748 40.0082C65.4505 39.9646 65.2685 39.8713 65.129 39.7283C64.9894 39.5854 64.877 39.421 64.7917 39.2352C64.7064 39.0494 64.6443 38.8581 64.6051 38.6609C64.566 38.4637 64.5353 38.2935 64.5131 38.1499C64.461 37.8122 64.4733 37.5403 64.5503 37.3341C64.6273 37.1279 64.7203 36.956 64.8296 36.8184C64.9389 36.6807 65.0398 36.5595 65.1324 36.4547C65.2249 36.3499 65.2608 36.2299 65.2399 36.0948C65.2099 35.9007 65.1562 35.736 65.0787 35.6009C65.0013 35.4657 64.9103 35.3414 64.8057 35.2277C64.7011 35.1139 64.594 34.9985 64.4846 34.8813C64.3751 34.764 64.274 34.6304 64.1811 34.4803C64.087 34.3218 64.0158 34.1426 63.9675 33.9425C63.9193 33.7425 63.8807 33.5495 63.852 33.3638C63.8285 33.2118 63.8133 33.0565 63.8061 32.8977C63.799 32.7389 63.8153 32.5917 63.8554 32.456C63.8953 32.3202 63.9598 32.2025 64.0487 32.1024C64.1377 32.0025 64.2715 31.9389 64.45 31.9117C64.8241 31.8547 65.1972 31.8756 65.5692 31.9745C65.9412 32.0734 66.3028 32.217 66.6539 32.4055C67.005 32.594 67.3423 32.8062 67.6659 33.0421C67.9894 33.278 68.2941 33.5037 68.5798 33.7195C68.6583 33.7767 68.7269 33.8268 68.7857 33.8696C68.8446 33.9124 68.9335 33.9249 69.0526 33.9067C69.1886 33.886 69.341 33.8304 69.5098 33.7399C69.6785 33.6494 69.8392 33.5492 69.992 33.4396C70.1447 33.3299 70.276 33.2213 70.3855 33.1139C70.4951 33.0065 70.5587 32.9254 70.5764 32.8709C70.6294 32.8196 70.6713 32.7528 70.7021 32.6703C70.7329 32.5878 70.7678 32.5048 70.8072 32.4209C70.8464 32.3372 70.8892 32.2616 70.9353 32.194C70.9814 32.1264 71.047 32.0862 71.132 32.0733C71.2255 32.059 71.303 32.0818 71.3644 32.1416C71.4259 32.2014 71.4794 32.2667 71.5252 32.3375L72.3309 33.8349ZM66.4935 33.6483C66.3064 33.6768 66.1628 33.7462 66.0623 33.8566C65.9619 33.9669 65.8909 34.0987 65.8493 34.252C65.8077 34.4052 65.7894 34.5679 65.7941 34.74C65.799 34.912 65.8125 35.0699 65.8346 35.2134C65.8581 35.3654 65.9135 35.4844 66.0007 35.5705C66.088 35.6566 66.1954 35.6899 66.3229 35.6705C66.3655 35.6641 66.417 35.6453 66.4775 35.6146C66.538 35.5838 66.5918 35.5518 66.6389 35.5187C66.686 35.4856 66.7663 35.428 66.8798 35.3459C66.9932 35.2638 67.1152 35.1804 67.2458 35.0957C67.3763 35.011 67.4982 34.9276 67.6118 34.8455C67.7252 34.7634 67.8056 34.7058 67.8527 34.6727C67.9383 34.6078 67.9899 34.5331 68.0073 34.4483C68.0247 34.3636 68.0281 34.2874 68.0177 34.2198C67.9956 34.0763 67.9238 33.9641 67.8026 33.8832C67.6812 33.8023 67.5414 33.7415 67.3828 33.7009C67.2242 33.6602 67.064 33.6371 66.9021 33.6315C66.7403 33.6259 66.604 33.6315 66.4935 33.6483ZM33.11 7.8323C33.1126 7.38819 33.128 6.94833 33.1563 6.51281C33.1748 6.27369 33.1891 6.0389 33.199 5.80836C33.2089 5.57782 33.2145 5.34294 33.2159 5.10371C33.2169 4.94146 33.2092 4.78124 33.1929 4.62314C33.1766 4.46504 33.1603 4.30482 33.144 4.14238C33.1278 3.97146 33.1095 3.7984 33.089 3.62313C33.0685 3.44787 33.0586 3.27491 33.0596 3.10408C33.0612 2.83929 33.1332 2.64319 33.2758 2.51586C33.4185 2.38853 33.6145 2.32554 33.864 2.32699C34.165 2.32873 34.4639 2.33885 34.7605 2.35766C35.0572 2.37638 35.3517 2.39519 35.644 2.4139C35.7896 2.51721 35.8794 2.62872 35.9131 2.74852C35.9468 2.86833 35.9632 3.00935 35.9623 3.1716C35.9615 3.31678 35.9563 3.46407 35.9468 3.61359C35.9374 3.763 35.9236 3.9103 35.9056 4.05538C35.8782 4.33714 35.8637 4.62314 35.862 4.91359C35.8609 5.09291 35.8682 5.33647 35.8837 5.64399C35.8991 5.9516 35.921 6.2678 35.9492 6.59249C35.9775 6.91727 36.0101 7.23135 36.0471 7.53482C36.0841 7.83828 36.1235 8.07548 36.1656 8.2466C36.1907 8.35782 36.2332 8.46055 36.2928 8.55479C36.3524 8.64913 36.4143 8.74125 36.4783 8.83134C36.5423 8.92144 36.5977 9.01568 36.6444 9.11417C36.6911 9.21266 36.7143 9.31741 36.7136 9.42844C36.7127 9.5822 36.6302 9.70769 36.4663 9.80502C36.3023 9.90235 36.1126 9.98029 35.8973 10.0388C35.6819 10.0975 35.4688 10.1368 35.2579 10.157C35.0471 10.1772 34.8986 10.187 34.8127 10.1865C34.7868 10.1863 34.7289 10.1818 34.6386 10.1727C34.5484 10.1637 34.4495 10.1546 34.342 10.1454C34.2345 10.1363 34.1314 10.1271 34.0325 10.118C33.9336 10.109 33.8584 10.1042 33.8068 10.104C33.6261 10.1029 33.4932 10.0253 33.4081 9.8711C33.323 9.71686 33.266 9.52644 33.2373 9.29995C33.2084 9.07346 33.1883 8.82778 33.177 8.56289C33.1656 8.29801 33.1432 8.05455 33.11 7.8323ZM33.627 0.91625C33.6367 0.719856 33.6677 0.559828 33.72 0.436261C33.7724 0.312695 33.846 0.219128 33.941 0.155657C34.036 0.0920888 34.1502 0.0500319 34.2836 0.0294857C34.4171 0.00884309 34.5698 -0.00089945 34.7418 6.51586e-05C34.9654 0.00131915 35.1348 0.0941145 35.2498 0.278355C35.3649 0.462691 35.4261 0.653105 35.4337 0.849596C35.442 0.883839 35.4461 0.93506 35.4457 1.00345C35.4443 1.23409 35.3551 1.42576 35.1779 1.57855C35.0007 1.73134 34.8003 1.80707 34.5766 1.80581C34.4477 1.80504 34.3145 1.77022 34.1772 1.70106C33.9884 1.6317 33.8492 1.52627 33.7598 1.38476C33.6702 1.24335 33.626 1.08708 33.627 0.91625ZM39.8997 71.6353C39.8997 71.0634 39.9163 70.4969 39.9495 69.9359C39.9716 69.6279 39.9882 69.3255 39.9993 69.0285C40.0104 68.7315 40.0159 68.4291 40.0159 68.1211C40.0159 67.9122 40.0048 67.7059 39.9827 67.5024C39.9606 67.299 39.9384 67.0927 39.9163 66.8837C39.8941 66.6637 39.8692 66.4409 39.8415 66.2155C39.8138 65.9901 39.7999 65.7674 39.7999 65.5473C39.7999 65.2064 39.8913 64.9534 40.074 64.7884C40.2567 64.6234 40.5088 64.5409 40.8299 64.5409C41.2176 64.5409 41.6024 64.5519 41.9845 64.5739C42.3666 64.5958 42.7459 64.6178 43.1225 64.6398C43.3108 64.7718 43.4271 64.9148 43.4714 65.0688C43.5157 65.2227 43.5379 65.4043 43.5379 65.6132C43.5379 65.8003 43.5323 65.9899 43.5213 66.1824C43.5102 66.3749 43.4936 66.5646 43.4714 66.7516C43.4382 67.1146 43.4216 67.4831 43.4216 67.857C43.4216 68.0879 43.4327 68.4014 43.4548 68.7974C43.477 69.1934 43.5075 69.6003 43.5462 70.0183C43.585 70.4363 43.6293 70.8404 43.6791 71.2309C43.7289 71.6214 43.7816 71.9266 43.8369 72.1465C43.8702 72.2895 43.9255 72.4215 44.003 72.5425C44.0806 72.6634 44.1609 72.7817 44.2439 72.8972C44.327 73.0126 44.399 73.1337 44.4599 73.2601C44.5208 73.3866 44.5513 73.5214 44.5513 73.6643C44.5513 73.8623 44.4461 74.0245 44.2356 74.1511C44.0252 74.2775 43.7815 74.3793 43.5046 74.4563C43.2276 74.5332 42.9535 74.5855 42.6822 74.613C42.4108 74.6405 42.2199 74.6543 42.109 74.6543C42.0758 74.6543 42.001 74.6488 41.8848 74.6378C41.7685 74.6268 41.6411 74.6158 41.5026 74.6048C41.3642 74.5938 41.2313 74.5828 41.1039 74.5718C40.9766 74.5608 40.8796 74.5553 40.8132 74.5553C40.5807 74.5553 40.4089 74.4564 40.2982 74.2583C40.1875 74.0603 40.1127 73.8156 40.0739 73.5242C40.0352 73.2327 40.0075 72.9165 39.9909 72.5755C39.9742 72.2345 39.9439 71.9213 39.8997 71.6353ZM49.17 69.2925C49.2585 69.6115 49.4109 69.9717 49.6268 70.3732C49.8427 70.7746 50.0919 71.1706 50.3744 71.5611C50.6569 71.9516 50.9587 72.309 51.2799 72.6334C51.6011 72.9579 51.9112 73.1972 52.2102 73.3511C52.3431 73.3511 52.4567 73.2823 52.5508 73.1449C52.6449 73.0074 52.7197 72.8397 52.7751 72.6416C52.8304 72.4437 52.8692 72.2402 52.8913 72.0312C52.9135 71.8223 52.9301 71.6518 52.9412 71.5198C52.9522 71.3988 53.0021 71.3218 53.0906 71.2888C53.1792 71.2558 53.2346 71.2393 53.2567 71.2393L55.5494 70.8433C55.6269 70.8433 55.6823 70.8708 55.7155 70.9258C55.7487 70.9808 55.7653 71.0468 55.7653 71.1237C55.7653 71.2227 55.7432 71.2942 55.6989 71.3383C55.0011 71.9872 54.3421 72.6526 53.7219 73.3345C53.1017 74.0165 52.4482 74.6874 51.7616 75.3473C51.5622 75.5012 51.3324 75.6498 51.0721 75.7927C50.8118 75.9357 50.5543 76.0073 50.2996 76.0073C50.2 76.0073 50.1057 76.0018 50.0172 75.9908C49.9286 75.9798 49.84 75.9303 49.7513 75.8423C49.3194 75.4793 48.9013 75.1136 48.497 74.7452C48.0928 74.3767 47.7328 73.9862 47.4172 73.5737C47.1015 73.1613 46.8358 72.7131 46.6197 72.2292C46.4037 71.7452 46.2681 71.2063 46.2127 70.6123C46.2902 69.9744 46.4813 69.2842 46.7859 68.5418C47.0905 67.7993 47.4698 67.0761 47.9239 66.3723C48.378 65.6683 48.893 65.0276 49.4689 64.4502C50.0448 63.8728 50.6429 63.4355 51.2632 63.1386C51.2743 63.1276 51.3435 63.1963 51.4709 63.3448C51.5982 63.4933 51.7589 63.683 51.9526 63.9141C52.1464 64.145 52.3624 64.4008 52.6005 64.6812C52.8387 64.9617 53.0712 65.2311 53.2983 65.4896C53.5253 65.7482 53.7331 65.9791 53.9213 66.1826C54.1097 66.3861 54.2536 66.5263 54.3533 66.6033C54.4086 66.6473 54.4613 66.6886 54.5111 66.7271C54.561 66.7655 54.6136 66.8123 54.669 66.8673C54.0598 66.9883 53.4534 67.0845 52.8498 67.156C52.2462 67.2275 51.6398 67.3018 51.0305 67.3787C50.8644 67.0597 50.6568 66.7738 50.4075 66.5208C50.1583 66.2679 49.8842 66.1413 49.5852 66.1413C49.4634 66.1413 49.3581 66.1908 49.2695 66.2898C49.1809 66.3888 49.109 66.5207 49.0535 66.6858C48.9981 66.8507 48.9538 67.035 48.9206 67.2385C48.8874 67.4419 48.8708 67.6427 48.8708 67.8407C48.8708 68.0937 48.904 68.3411 48.9704 68.5832C49.0369 68.8251 49.1035 69.0615 49.17 69.2925ZM63.4242 71.6188C63.4242 71.2998 63.4297 70.9836 63.4408 70.6701C63.4519 70.3566 63.4685 70.0404 63.4906 69.7214C63.0808 69.5674 62.6683 69.4299 62.2529 69.3089C61.8376 69.188 61.4472 69.0174 61.0817 68.7975C61.0928 69.0835 61.1094 69.3887 61.1315 69.7132C61.1537 70.0377 61.1814 70.3511 61.2146 70.6536C61.2478 70.9561 61.2838 71.2393 61.3226 71.5032C61.3614 71.7672 61.4029 71.9817 61.4472 72.1466C61.4804 72.2896 61.5386 72.4216 61.6217 72.5426C61.7047 72.6635 61.7878 72.7818 61.8709 72.8973C61.954 73.0127 62.0259 73.1338 62.0868 73.2602C62.1477 73.3867 62.1782 73.5215 62.1782 73.6644C62.1782 73.8624 62.0731 74.0246 61.8626 74.1512C61.6522 74.2776 61.4085 74.3794 61.1315 74.4564C60.8546 74.5333 60.5805 74.5856 60.3092 74.6131C60.0378 74.6406 59.8469 74.6544 59.736 74.6544C59.7028 74.6544 59.628 74.6489 59.5117 74.6379C59.3955 74.6269 59.268 74.6159 59.1296 74.6049C58.9912 74.5939 58.8582 74.5829 58.7309 74.5719C58.6035 74.5609 58.5066 74.5554 58.4402 74.5554C58.2076 74.5554 58.0359 74.4565 57.9252 74.2584C57.8144 74.0604 57.7396 73.8157 57.7009 73.5243C57.6621 73.2328 57.6344 72.9166 57.6178 72.5756C57.6012 72.2346 57.5707 71.9212 57.5264 71.6352C57.5264 71.0633 57.543 70.4968 57.5763 69.9358C57.5984 69.6278 57.615 69.3254 57.6261 69.0284C57.6372 68.7314 57.6427 68.429 57.6427 68.121C57.6427 67.9121 57.6316 67.7058 57.6095 67.5023C57.5873 67.2989 57.5652 67.0926 57.543 66.8836C57.5209 66.6636 57.4959 66.4409 57.4683 66.2154C57.4406 65.99 57.4267 65.7673 57.4267 65.5472C57.4267 65.2062 57.5181 64.9533 57.7008 64.7883C57.8835 64.6233 58.1356 64.5408 58.4567 64.5408C58.8443 64.5408 59.2292 64.5518 59.6113 64.5738C59.9934 64.5957 60.3727 64.6177 60.7493 64.6397C60.9376 64.7717 61.0539 64.9147 61.0982 65.0687C61.1425 65.2226 61.1647 65.4042 61.1647 65.6131C61.1647 65.8002 61.1591 65.9898 61.148 66.1823C61.137 66.3748 61.1204 66.5645 61.0982 66.7516C61.065 67.0156 61.0484 67.2795 61.0484 67.5435C61.3807 67.7744 61.7628 67.9808 62.1948 68.1622C62.6267 68.3436 63.0697 68.5114 63.5238 68.6654C63.5349 68.5775 63.5404 68.4867 63.5404 68.3932C63.5404 68.2997 63.5404 68.2035 63.5404 68.1045C63.5404 67.8956 63.5294 67.6892 63.5072 67.4858C63.4851 67.2824 63.4629 67.0761 63.4408 66.8671C63.4186 66.6472 63.3937 66.4245 63.366 66.1989C63.3383 65.9734 63.3244 65.7507 63.3244 65.5307C63.3244 65.1898 63.4158 64.9368 63.5985 64.7718C63.7812 64.6068 64.0333 64.5244 64.3544 64.5244C64.7421 64.5244 65.1269 64.5354 65.509 64.5574C65.8912 64.5793 66.2705 64.6013 66.6471 64.6233C66.8353 64.7553 66.9517 64.8982 66.996 65.0523C67.0403 65.2063 67.0624 65.3878 67.0624 65.5967C67.0624 65.7837 67.0569 65.9734 67.0458 66.1659C67.0347 66.3585 67.0181 66.5482 66.996 66.7352C66.9627 67.0981 66.9461 67.4666 66.9461 67.8405C66.9461 68.0715 66.9572 68.3849 66.9794 68.7809C67.0015 69.1769 67.032 69.5838 67.0708 70.0018C67.1095 70.4198 67.1538 70.8239 67.2036 71.2144C67.2535 71.6049 67.3061 71.9101 67.3615 72.1301C67.3947 72.2731 67.4501 72.405 67.5276 72.5261C67.6051 72.647 67.6854 72.7653 67.7685 72.8808C67.8515 72.9962 67.9235 73.1173 67.9845 73.2438C68.0454 73.3702 68.0759 73.505 68.0759 73.6479C68.0759 73.8459 67.9707 74.0081 67.7602 74.1347C67.5498 74.2611 67.3061 74.3629 67.0292 74.4399C66.7523 74.5168 66.4781 74.5691 66.2068 74.5966C65.9355 74.6241 65.7444 74.6379 65.6337 74.6379C65.6004 74.6379 65.5257 74.6324 65.4094 74.6214C65.2931 74.6104 65.1657 74.5994 65.0273 74.5884C64.8888 74.5774 64.7559 74.5664 64.6285 74.5554C64.5012 74.5444 64.4043 74.5389 64.3378 74.5389C64.1052 74.5389 63.9335 74.44 63.8228 74.2419C63.7121 74.044 63.6373 73.7993 63.5985 73.5078C63.5598 73.2163 63.5321 72.9001 63.5155 72.5591C63.4989 72.2181 63.4685 71.9047 63.4242 71.6188ZM80.2369 65.5803C80.4252 67.0212 80.5553 68.429 80.6273 69.8039C80.6992 71.1787 80.7353 72.5536 80.7353 73.9284C80.7353 74.0824 80.6301 74.2034 80.4196 74.2914C80.2092 74.3794 79.96 74.4427 79.672 74.4811C79.384 74.5196 79.0877 74.5416 78.7831 74.5471C78.4785 74.5526 78.2376 74.5553 78.0604 74.5553C77.8722 74.5553 77.6838 74.5415 77.4956 74.514C77.3073 74.4865 77.1329 74.4343 76.9722 74.3573C76.8117 74.2803 76.6787 74.1731 76.5735 74.0356C76.4683 73.8981 76.4101 73.7194 76.399 73.4994C76.4766 73.1364 76.5375 72.7679 76.5818 72.394C76.626 72.0201 76.6593 71.6516 76.6814 71.2886L76.5153 71.1566C76.5153 71.2556 76.5098 71.3519 76.4987 71.4453C76.4876 71.5388 76.4544 71.6241 76.399 71.7011C76.1221 72.064 75.8037 72.449 75.4437 72.856C75.0838 73.2629 74.7155 73.6836 74.3389 74.1181C73.9624 74.5525 73.5941 74.998 73.2342 75.4544C72.8742 75.9109 72.5502 76.3783 72.2622 76.8568C71.9742 77.3352 71.7389 77.822 71.5562 78.3169C71.3735 78.8119 71.2765 79.3068 71.2655 79.8017C71.2655 79.8897 71.2488 79.9447 71.2156 79.9667C71.1824 79.9887 71.1492 79.9997 71.116 79.9997H71.0661C71.0551 79.9997 71.0495 79.9942 71.0495 79.9832C70.7949 79.8182 70.5815 79.5735 70.4099 79.249C70.2383 78.9245 70.1026 78.5863 70.0029 78.2344C69.9033 77.8824 69.834 77.5524 69.7952 77.2445C69.7565 76.9365 69.7372 76.722 69.7372 76.6011C69.7372 75.9192 69.7952 75.3335 69.9116 74.844C70.0279 74.3546 70.1802 73.9173 70.3684 73.5325C70.5788 73.1145 70.8115 72.7598 71.0662 72.4683C71.3209 72.1768 71.6007 71.9239 71.9052 71.7093C72.2098 71.4948 72.5364 71.3052 72.8854 71.1401C73.2343 70.9752 73.608 70.8156 74.0068 70.6617C74.1286 70.6177 74.2421 70.5627 74.3473 70.4967C74.4525 70.4308 74.566 70.3648 74.6879 70.2988C74.6879 70.2988 74.6989 70.2933 74.7211 70.2823C74.422 70.1613 74.0704 70.0266 73.6661 69.8781C73.2618 69.7297 72.8797 69.5509 72.5197 69.3419C72.1598 69.133 71.8524 68.8855 71.5977 68.5994C71.343 68.3134 71.2156 67.9725 71.2156 67.5766C71.2156 67.2576 71.3015 66.9524 71.4731 66.661C71.6448 66.3695 71.858 66.1083 72.1128 65.8773C72.3674 65.6463 72.6444 65.4456 72.9434 65.2751C73.2425 65.1047 73.5193 64.9754 73.7741 64.8874C73.9181 64.8435 74.1257 64.7912 74.3971 64.7307C74.6685 64.6702 74.9398 64.6152 75.2112 64.5657C75.4826 64.5163 75.718 64.475 75.9173 64.442C76.1166 64.409 76.2108 64.3925 76.1997 64.3925C76.2994 64.1616 76.4517 63.991 76.6566 63.8811C76.8614 63.7711 77.0885 63.6968 77.3377 63.6583C77.587 63.6199 77.8472 63.6006 78.1186 63.6006C78.39 63.6006 78.642 63.5896 78.8745 63.5676C79.0406 63.5676 79.1984 63.6171 79.348 63.716C79.4975 63.815 79.6387 63.9416 79.7716 64.0955C79.9599 64.5465 80.1151 65.0414 80.2369 65.5803ZM76.5155 70.3154C76.5377 70.3154 76.5598 70.3099 76.5819 70.2989C76.6041 70.2879 76.6235 70.2521 76.64 70.1916C76.6566 70.1312 76.6733 70.0432 76.6899 69.9276C76.7065 69.8122 76.7203 69.6444 76.7314 69.4244C76.7093 69.1824 76.6871 68.9212 76.665 68.6407C76.6429 68.3603 76.6179 68.0825 76.5902 67.8076C76.5625 67.5327 76.5348 67.2714 76.5072 67.024C76.4795 66.7764 76.449 66.5647 76.4158 66.3888C76.3825 66.2458 76.3272 66.1192 76.2497 66.0093C76.1721 65.8993 76.0393 65.8443 75.8509 65.8443C75.4965 65.9103 75.2584 66.0671 75.1365 66.3145C75.0147 66.562 74.9538 66.8342 74.9538 67.1311C74.9538 67.2851 74.9649 67.4473 74.987 67.6179C75.0092 67.7883 75.0368 67.9616 75.0701 68.1376C75.2583 68.8636 75.4965 69.408 75.7845 69.771C76.0725 70.1339 76.3161 70.3154 76.5155 70.3154ZM9.94762 50.2102C9.34384 50.2041 8.74608 50.1808 8.15425 50.1403C7.82934 50.114 7.51026 50.0935 7.19681 50.0789C6.88345 50.0642 6.56418 50.0552 6.23907 50.052C6.01848 50.0497 5.80061 50.0591 5.58556 50.08C5.37051 50.101 4.19189 49.8209 4.12866 50.0321C4.00918 50.431 3.35334 51.8001 2.82474 51.3847C2.40415 51.0541 0.268092 49.784 0.253814 49.7681C0.0815962 49.5761 -0.00281267 49.3129 0.000586999 48.9784C0.0046666 48.5749 0.0204022 48.1743 0.0475995 47.7767C0.0747969 47.3792 0.102091 46.9845 0.129289 46.5927C0.270618 46.398 0.422825 46.2785 0.585815 46.2339C0.748805 46.1895 0.94074 46.1684 1.16133 46.1705C1.35871 46.1724 1.55899 46.1802 1.762 46.1938C1.96511 46.2073 2.16481 46.2301 2.36238 46.2517C2.7448 46.2935 5.60159 46.4996 5.99643 46.5035C6.24024 46.5059 6.57127 46.4977 6.98952 46.4788C7.40778 46.4599 7.83769 46.4325 8.27936 46.3966C8.72102 46.3607 9.14821 46.3188 9.56093 46.271C9.97365 46.2232 10.2964 46.1717 10.5293 46.1164C10.6806 46.0833 10.8205 46.027 10.9491 45.9476C11.0776 45.8681 11.2033 45.7858 11.3261 45.7005C11.4489 45.6152 11.5774 45.5415 11.7116 45.4795C11.8457 45.4174 11.9883 45.3871 12.1392 45.3887C12.3483 45.3908 12.5184 45.502 12.6497 45.7224C12.781 45.9428 12.8858 46.1976 12.9642 46.4867C13.0426 46.7758 13.0948 47.0617 13.121 47.3445C13.1471 47.6273 13.1596 47.8263 13.1585 47.9417C13.1581 47.9762 13.1515 48.0541 13.1386 48.175C13.1258 48.296 13.1128 48.4285 13.0998 48.5725C13.0867 48.7166 13.0737 48.8548 13.0607 48.9873C13.0478 49.1198 13.0409 49.2207 13.0402 49.2898C13.0378 49.5319 12.9315 49.7096 12.7213 49.8229C12.5111 49.9361 12.2519 50.0114 11.9438 50.0486C11.6357 50.0858 11.3016 50.1114 10.9415 50.125C10.5813 50.1387 10.25 50.167 9.94762 50.2102ZM1.31286 37.6159C2.13033 36.872 2.93256 36.2255 3.71963 35.6761C4.5067 35.1268 5.29979 34.6182 6.09891 34.1505C6.63945 33.897 7.23595 33.7194 7.88859 33.6176C8.54123 33.516 9.19775 33.4867 9.85816 33.53C9.98337 33.5728 10.1047 33.6299 10.2221 33.7012C10.3396 33.7725 10.4536 33.8521 10.564 33.9402C11.2203 34.5726 11.8462 35.2232 12.4418 35.892C13.0374 36.5608 13.6263 37.2437 14.2084 37.9405C14.3568 38.1582 14.4973 38.4073 14.63 38.6875C14.7627 38.9677 14.8202 39.2402 14.8026 39.5049C14.7957 39.6084 14.7835 39.7059 14.7658 39.7972C14.7481 39.8885 14.6899 39.9771 14.5911 40.0631C14.1789 40.4868 13.7648 40.896 13.3487 41.2905C12.9327 41.6851 12.4965 42.0321 12.0403 42.3316C11.584 42.631 11.0935 42.8763 10.5688 43.0673C10.0441 43.2583 9.46701 43.3621 8.83748 43.3786C8.17076 43.2541 7.45693 43.0079 6.69589 42.6403C5.93475 42.2726 5.19916 41.8287 4.48892 41.3083C3.77868 40.788 3.13935 40.2087 2.57073 39.5705C2.00212 38.9323 1.58289 38.2808 1.31286 37.6159ZM12.1364 37.3368C12.1433 37.2332 12.1031 37.1382 12.0157 37.0515C11.9284 36.9649 11.817 36.8883 11.6818 36.8217C11.5466 36.755 11.3962 36.699 11.2305 36.6535C11.0648 36.6079 10.9016 36.5684 10.7409 36.5347C10.289 36.5051 9.83262 36.5445 9.37152 36.6531C8.91043 36.7615 8.45002 36.9047 7.99019 37.0826C7.53036 37.2605 7.08054 37.4622 6.64082 37.6876C6.20109 37.913 5.78206 38.134 5.38362 38.3507C5.1064 38.4943 4.87075 38.6696 4.67668 38.8764C4.48251 39.0832 4.37712 39.3133 4.36032 39.5664C4.35187 39.6929 4.39674 39.8057 4.49495 39.9046C4.59315 40.0034 4.72719 40.0874 4.89717 40.1562C5.06716 40.2251 5.25822 40.2839 5.47026 40.3325C5.6823 40.381 5.8926 40.4121 6.10114 40.4258C6.36768 40.4433 6.63062 40.4258 6.89016 40.3736C7.1496 40.3212 7.40331 40.2685 7.6512 40.2154C7.9933 40.1453 8.38329 40.0119 8.82117 39.8152C9.25895 39.6186 9.69333 39.387 10.1241 39.1205C10.5549 38.854 10.9523 38.5652 11.3163 38.2538C11.6803 37.9426 11.9536 37.6369 12.1364 37.3368ZM3.39151 23.8499C4.33613 23.2734 5.24724 22.7894 6.12484 22.3982C7.00254 22.0069 7.87829 21.6568 8.7521 21.348C9.33121 21.2008 9.95083 21.1387 10.611 21.1616C11.2713 21.1846 11.9215 21.2794 12.5617 21.4462C12.6764 21.5119 12.7846 21.5907 12.8864 21.6827C12.9881 21.7748 13.0848 21.8745 13.1765 21.9819C13.7002 22.7262 14.1906 23.4829 14.6478 24.2517C15.105 25.0205 15.5529 25.8018 15.9915 26.5956C16.0957 26.8373 16.1862 27.1083 16.2629 27.4084C16.3398 27.7086 16.3442 27.9869 16.2764 28.2435C16.2499 28.3439 16.2192 28.4372 16.1845 28.5235C16.1497 28.6099 16.0756 28.6859 15.9621 28.7518C15.4765 29.0902 14.9919 29.414 14.5081 29.7231C14.0243 30.0323 13.5298 30.2909 13.0247 30.4991C12.5195 30.7072 11.9911 30.8557 11.4395 30.9444C10.8879 31.0332 10.3014 31.0265 9.68012 30.9243C9.04933 30.6764 8.39533 30.3004 7.71822 29.7962C7.0411 29.292 6.40352 28.7176 5.80547 28.0731C5.20742 27.4285 4.69018 26.7394 4.25367 26.0058C3.81715 25.2722 3.52983 24.5536 3.39151 23.8499ZM14.0722 25.6128C14.0987 25.5124 14.0773 25.4115 14.0081 25.31C13.9388 25.2086 13.8442 25.1124 13.7242 25.0215C13.6041 24.9307 13.4671 24.8472 13.3131 24.7714C13.159 24.6955 13.0063 24.6259 12.855 24.5627C12.4169 24.4485 11.9613 24.4014 11.4879 24.4212C11.0144 24.4409 10.5351 24.4949 10.0496 24.583C9.56414 24.6712 9.08401 24.7845 8.60922 24.9231C8.13443 25.0618 7.68082 25.1999 7.24829 25.3375C6.94873 25.4264 6.68385 25.5541 6.45383 25.7207C6.22372 25.8873 6.07628 26.0932 6.01149 26.3386C5.97905 26.4613 6.00158 26.5804 6.07909 26.696C6.15661 26.8116 6.27229 26.9192 6.42596 27.0188C6.57972 27.1185 6.75601 27.2122 6.95504 27.2997C7.15397 27.3873 7.35455 27.4575 7.55668 27.5101C7.81506 27.5774 8.07654 27.6098 8.34133 27.6073C8.60611 27.6047 8.86526 27.6007 9.11878 27.5952C9.46807 27.5908 9.87642 27.5333 10.3438 27.4225C10.8112 27.3118 11.2818 27.1662 11.7558 26.9857C12.2297 26.8051 12.6749 26.5962 13.0917 26.3591C13.5085 26.122 13.8354 25.873 14.0722 25.6128ZM12.8209 8.10075C13.9294 8.12361 14.9593 8.20638 15.9105 8.34904C16.8618 8.49171 17.789 8.66804 18.6921 8.87794C19.2593 9.06536 19.8142 9.34616 20.3569 9.72033C20.8996 10.0945 21.3946 10.5237 21.8421 11.008C21.9028 11.1248 21.9508 11.2493 21.9861 11.3814C22.0215 11.5134 22.0485 11.6493 22.0671 11.7888C22.1018 12.6962 22.1019 13.596 22.0673 14.4883C22.0329 15.3805 21.9837 16.2782 21.9199 17.1814C21.8758 17.4407 21.8042 17.7171 21.7052 18.0108C21.6062 18.3045 21.4583 18.541 21.2615 18.7203C21.1845 18.7904 21.1079 18.8525 21.0316 18.9064C20.9553 18.9603 20.8515 18.9844 20.7203 18.9788C20.1276 19.0025 19.5435 19.0142 18.9683 19.0142C18.393 19.0141 17.8362 18.9659 17.298 18.8694C16.7598 18.773 16.2345 18.6138 15.7223 18.3921C15.21 18.1702 14.7206 17.8494 14.2538 17.4296C13.8584 16.8822 13.5134 16.2146 13.2188 15.4267C12.9242 14.6387 12.7011 13.8131 12.5494 12.9496C12.3978 12.0862 12.3384 11.2288 12.3711 10.3773C12.4038 9.52586 12.5537 8.76672 12.8209 8.10075ZM20.8416 15.3234C20.9186 15.2533 20.9556 15.157 20.9527 15.0344C20.9498 14.9119 20.9226 14.7801 20.8712 14.6392C20.8198 14.4982 20.75 14.3545 20.6618 14.2079C20.5737 14.0613 20.4832 13.9207 20.3904 13.7862C20.0843 13.4548 19.7267 13.1702 19.3179 12.9324C18.909 12.6945 18.4765 12.4823 18.0203 12.2954C17.564 12.1087 17.0985 11.946 16.6238 11.8074C16.149 11.6687 15.6923 11.5411 15.2535 11.4244C14.9532 11.3382 14.6609 11.3033 14.3766 11.3196C14.0923 11.336 13.8562 11.43 13.6679 11.6015C13.5738 11.6873 13.5279 11.7995 13.5301 11.9384C13.5323 12.0773 13.5709 12.2299 13.6459 12.3963C13.7209 12.5627 13.8181 12.7363 13.9377 12.9168C14.0572 13.0974 14.1877 13.2642 14.3289 13.4171C14.5095 13.6125 14.7118 13.7804 14.9358 13.9204C15.1599 14.0606 15.38 14.1965 15.5961 14.3282C15.8922 14.5122 16.267 14.6833 16.7203 14.8414C17.1738 14.9995 17.6488 15.13 18.1457 15.2329C18.6425 15.3357 19.1309 15.3994 19.6105 15.424C20.0903 15.4486 20.5007 15.415 20.8416 15.3234ZM9.55297 68.1812C9.51421 68.3158 9.2369 68.9756 8.94657 69.6483C7.88859 72.0699 7.72735 72.7297 7.72735 74.6067C7.73376 76.0994 7.82409 76.7401 8.12734 77.3807C9.00465 79.2449 11.0045 78.9822 11.5463 76.9322C11.7593 76.125 11.8367 75.2794 11.7979 74.1391C11.7463 72.5888 11.527 71.7816 10.6754 69.9622C10.4109 69.3984 10.0884 68.7129 9.95937 68.4374C9.83038 68.1684 9.70129 67.9441 9.68196 67.9441C9.65612 67.9441 9.59814 68.0531 9.55297 68.1812ZM8.68848 67.9185C6.83061 68.1427 5.56623 68.7002 4.35342 69.8276C3.82443 70.3144 3.1277 71.1601 2.97287 71.4996C2.5923 72.3197 3.16636 73.0628 4.17916 73.0693C5.50805 73.0756 6.67569 72.1275 8.18524 69.8341C8.55939 69.2703 9.00455 68.6041 9.17871 68.3478C9.49479 67.8865 9.53354 67.8096 9.44962 67.8225C9.41737 67.8288 9.08197 67.8673 8.68848 67.9185ZM11.127 67.784C10.6239 67.8352 10.1335 67.88 10.0432 67.8929C9.88837 67.9121 9.91421 67.9441 10.3465 68.3093C10.6045 68.5271 11.1529 68.9948 11.5593 69.3536C13.1204 70.7246 14.5074 71.5253 16.4621 72.1788C17.391 72.4927 17.5071 72.5119 18.1071 72.5184C18.8554 72.5247 19.2618 72.4158 19.6489 72.0956C20.3714 71.5062 20.2617 70.4684 19.4037 69.6932C18.6813 69.0398 17.12 68.2838 15.7718 67.9315C15.0428 67.7393 14.9525 67.7328 13.5269 67.7137C12.6496 67.7073 11.6689 67.7327 11.127 67.784ZM35.0474 51.9539C35.557 52.0436 36.2731 52.1333 36.6407 52.1589L37.2987 52.2037L37.3051 52.7227C37.3051 53.011 37.3567 54.6382 37.4148 56.3423L37.5244 59.4429L36.9761 59.3981C35.8666 59.3212 34.0603 59.0842 34.041 59.0137C34.0216 58.9496 33.6797 52.0436 33.6861 51.7873C33.6861 51.6976 33.7184 51.6912 33.899 51.7424C34.0216 51.7745 34.5377 51.8705 35.0474 51.9539Z" fill="#FEFEFE"/>
</svg>
