<svg width="64" height="64" viewBox="0 0 64 64" fill="none" xmlns="http://www.w3.org/2000/svg">
<path d="M32.6531 6.08975C29.0467 6.43465 25.7131 7.58091 22.7532 9.50824C21.8138 10.1169 20.2783 11.2834 20.1571 11.4863C20.1167 11.5573 19.7328 11.8921 19.3186 12.2369C18.167 13.1702 18.1468 13.2818 19.2681 12.5311C21.238 11.2124 23.4907 10.269 25.8747 9.76184C27.0364 9.50824 27.3496 9.48796 29.471 9.47781C31.5318 9.47781 31.9257 9.50824 32.9561 9.72126C40.2901 11.2327 46.0481 16.6597 48.1493 24.0444C48.6443 25.7993 48.5938 25.8298 47.7048 24.2372C46.2098 21.5998 45.7956 20.9303 45.1895 20.0985C40.4416 13.6672 32.4207 10.3198 24.5817 11.5066C17.1871 12.6224 10.8533 17.4408 7.85301 24.2473C6.7115 26.8441 6.11549 29.441 6.01447 32.3523C5.74172 40.021 9.33798 47.0305 15.7628 51.3518C17.4498 52.498 20.3692 53.766 23.0563 54.537C23.1371 54.5572 22.6623 54.2935 21.9956 53.9385C20.5813 53.1878 20.147 52.9139 19.1166 52.1329C16.2477 49.9316 14.0151 46.7972 12.8635 43.3381C10.6714 36.7243 12.1766 29.4816 16.8841 24.0039C17.3993 23.4054 17.8639 22.888 17.9246 22.8576C18.066 22.7663 18.0559 22.7764 17.1669 24.1357C15.6314 26.4688 14.4293 29.4511 13.904 32.2407C13.5404 34.1477 13.4595 36.9069 13.7121 38.8444C14.7122 46.7667 19.9449 53.5936 27.1981 56.4339C29.7437 57.428 31.9358 57.8946 34.5219 57.9859C42.1286 58.2598 49.3211 54.5369 53.473 48.1767C55.2307 45.4886 56.4025 42.3339 56.847 39.098C57.1097 37.1909 57.0289 34.2188 56.645 31.9972L56.3419 30.2728L56.2813 32.2508C56.2207 34.0666 56.0894 35.1621 55.7863 36.3287C53.8973 43.6931 47.9877 49.0491 40.28 50.3678C38.795 50.6214 36.1685 50.6721 34.6027 50.4693C33.2895 50.2968 31.3802 49.8911 31.0469 49.7085C30.9459 49.6476 31.9762 49.6172 33.7643 49.6273C36.8756 49.6476 37.4818 49.5969 39.5728 49.0897C43.7449 48.0854 47.1391 46.1378 50.1293 43.0439C51.887 41.2282 52.9982 39.6254 54.1296 37.2721C54.9277 35.6186 55.5237 33.8333 55.8469 32.0581C55.9884 31.2973 56.1399 30.5365 56.1904 30.3742C56.3419 29.8873 56.2409 25.8399 56.049 24.6936C55.1196 18.8812 52.281 14.0223 47.7857 10.5429C43.5429 7.24616 37.906 5.58256 32.6531 6.08975ZM40.4921 8.52429C45.8259 10.3502 50.2404 14.2252 52.6649 19.2159C55.4631 24.9777 55.4429 31.6219 52.6042 37.3735C50.897 40.8427 48.4221 43.6729 45.1794 45.8335C44.3106 46.4218 43.0378 47.1623 42.9065 47.1623C42.8661 47.1623 43.3711 46.7972 44.0278 46.361C50.0081 42.3744 53.5033 35.365 53.2306 27.9397C53.0992 24.5719 52.4426 21.9244 50.9879 18.9116C49.8666 16.5887 48.7958 15.0671 47.0179 13.2412C44.9874 11.1617 42.7044 9.59954 40.179 8.56486C39.3203 8.20983 39.1183 8.10839 39.2395 8.10839C39.2698 8.10839 39.8355 8.29098 40.4921 8.52429ZM34.6431 8.57501C34.6128 8.60544 34.5219 8.61558 34.4512 8.58515C34.3704 8.55472 34.4007 8.52429 34.5118 8.52429C34.6229 8.51414 34.6835 8.54457 34.6431 8.57501ZM35.9867 8.81846C43.3812 10.5835 49.2302 16.3046 51.1395 23.6387C51.685 25.7486 51.786 26.621 51.786 29.0555C51.786 31.419 51.6951 32.1393 51.1799 34.2289C49.7454 39.9399 45.634 45.0017 40.381 47.5072C39.1284 48.1057 38.795 48.1869 39.7749 47.6391C43.553 45.5698 46.3108 42.6585 48.1695 38.7936C49.604 35.791 50.2505 32.9102 50.2404 29.4613C50.2404 24.369 48.7453 19.9159 45.6946 15.8685C44.9369 14.8642 42.9671 12.9064 41.9266 12.1051C39.8557 10.5429 37.1989 9.2445 34.926 8.68659L34.724 8.63587L34.926 8.62573C35.0371 8.62573 35.5119 8.70688 35.9867 8.81846ZM30.3397 12.6731C31.855 12.8354 33.734 13.231 35.128 13.6977C36.32 14.0933 39.3304 15.5236 39.8254 15.9192C39.9668 16.0308 39.5122 15.8482 38.8152 15.5236C35.6028 13.9918 32.7743 13.4035 29.1275 13.5151C26.5616 13.5962 24.4504 14.0223 22.0764 14.9555C17.6114 16.7104 13.7121 19.997 11.227 24.1053C9.61073 26.7833 8.51973 30.0395 8.20657 33.1536C8.03484 34.868 8.07525 36.1258 8.3581 38.4893C8.39851 38.8646 8.39851 38.8748 8.30759 38.5908C7.77219 36.9576 7.53985 33.1334 7.8429 30.7597C8.85309 22.7764 14.0859 16.2742 21.5511 13.6977C24.3493 12.7441 27.4203 12.379 30.3397 12.6731ZM33.0268 14.8541C36.1281 15.2598 39.0576 16.3655 41.5528 18.0494C42.9873 19.0131 43.5631 19.5405 42.2801 18.7087C40.3406 17.4509 38.1788 16.5785 35.7846 16.0713C34.2391 15.7467 31.2792 15.6149 29.6629 15.8076C23.5513 16.5278 18.0458 19.784 14.3485 24.8458C10.7017 29.8467 9.439 36.3084 10.9846 42.0904C11.2371 43.0642 11.0553 42.7498 10.6916 41.6035C7.04486 30.0293 14.096 17.8262 25.9858 15.1584C28.0466 14.6918 30.8751 14.5802 33.0268 14.8541ZM34.2492 16.9336C39.9365 17.5422 44.8056 20.4129 47.917 24.9675C48.715 26.1442 48.8059 26.5094 48.8868 29.0555C48.9272 30.5467 48.907 31.2872 48.7756 32.3218C48.1089 37.5561 45.5228 42.2426 41.5326 45.4785C39.0172 47.5072 35.7341 48.9071 32.4914 49.3433C30.4812 49.6172 30.1882 49.5664 28.0971 48.5622C22.6421 45.9552 18.5913 41.0659 17.1568 35.3447C16.6921 33.4985 16.5608 32.19 16.6214 30.1713C16.7022 27.4122 17.1669 25.3327 18.2074 23.0706C18.6216 22.1577 19.0156 21.7519 20.5611 20.6564C24.5514 17.8161 29.6023 16.4365 34.2492 16.9336ZM15.9547 28.8222C15.9244 28.9034 15.8941 28.8729 15.8941 28.7613C15.884 28.6498 15.9143 28.5889 15.9446 28.6295C15.9749 28.6599 15.985 28.7512 15.9547 28.8222ZM15.8032 31.1147C15.7527 33.4377 15.8941 34.6549 16.4295 36.633C18.5509 44.4032 25.3191 50.3475 33.7441 51.8488C35.4412 52.143 38.997 52.1734 40.583 51.8995C44.6339 51.1895 48.2604 49.465 50.8162 47.0203C51.1597 46.6957 51.4425 46.4624 51.4425 46.5233C51.4425 46.6653 49.3919 48.6535 48.6645 49.2013C45.735 51.4431 42.2094 52.8835 38.5121 53.3501C37.2797 53.5023 34.7644 53.4718 33.441 53.2994C28.8649 52.6908 24.6625 50.6011 21.4198 47.2942C19.6722 45.5292 18.6216 44.038 17.5407 41.8368C16.0557 38.8038 15.3991 35.72 15.5102 32.3016C15.5506 31.0133 15.7325 29.1062 15.8234 29.1062C15.8335 29.1062 15.8234 30.009 15.8032 31.1147ZM14.6415 32.6262C14.6111 32.7276 14.5909 32.6667 14.5909 32.5044C14.5909 32.332 14.6111 32.261 14.6415 32.3218C14.6617 32.3928 14.6617 32.5349 14.6415 32.6262ZM14.6718 35.4157C15.1668 41.6948 18.5004 47.4261 23.8139 51.1387C26.1273 52.7516 29.1679 54.05 31.9661 54.608C33.8653 54.9934 35.2189 55.105 37.0979 55.0441C41.27 54.892 44.8864 53.7153 48.3615 51.3619C49.4424 50.6214 49.4626 50.6214 48.9171 51.1185C48.1897 51.788 46.826 52.7618 45.6643 53.4313C43.2196 54.8616 40.3406 55.8354 37.502 56.1803C36.2695 56.3426 33.7542 56.3121 32.4207 56.1397C24.6019 55.1152 18.0761 49.6273 15.5809 42.0093C14.7425 39.4428 14.4596 37.5865 14.4899 34.8375C14.5 33.884 14.5202 33.3159 14.5404 33.5695C14.5505 33.8231 14.6111 34.6549 14.6718 35.4157Z" fill="#B7B7B7"/>
<path d="M20.7834 23.0503C20.7531 23.1213 20.743 24.0039 20.7531 24.998L20.7834 26.8239L23.7634 26.8847V26.5195C23.7634 26.0631 23.4604 25.4544 23.0664 25.1197L22.7633 24.8661L23.1573 24.4502C23.5412 24.0444 23.723 23.5575 23.6422 23.1518C23.6119 22.9895 23.4806 22.9692 22.2178 22.9387C21.1471 22.9185 20.8137 22.9387 20.7834 23.0503ZM22.8846 23.588C22.9957 23.7097 22.6522 24.227 22.3593 24.3893C22.1976 24.4705 21.9148 24.5516 21.7229 24.5618C21.3996 24.5922 21.3895 24.5821 21.3592 24.1459C21.339 23.8618 21.3693 23.6691 21.4602 23.6184C21.6117 23.5169 22.7937 23.4967 22.8846 23.588ZM22.4603 25.4341C22.6118 25.5153 22.8038 25.7182 22.8947 25.8703C23.1169 26.2457 23.026 26.2862 22.0865 26.2457L21.3895 26.2152L21.3592 25.8196C21.3087 25.2211 21.3794 25.1298 21.8138 25.211C22.0259 25.2516 22.3189 25.3428 22.4603 25.4341Z" fill="#B7B7B7"/>
<path d="M25.5212 23.0503C25.4909 23.1315 25.5414 23.3648 25.6222 23.5778C25.7131 23.7908 25.7838 23.9734 25.7838 23.9937C25.7838 24.014 25.6121 24.1154 25.3999 24.227C24.8847 24.4908 24.3089 25.1501 24.1776 25.6269C24.0463 26.0935 24.0362 26.8746 24.1473 26.8746C24.1978 26.8746 24.7534 26.763 25.3898 26.621C26.5718 26.3572 26.794 26.3572 26.794 26.6108C26.794 26.834 27.4203 26.9963 27.5314 26.7934C27.5617 26.7529 27.2486 25.8805 26.8546 24.8458C26.1778 23.0909 26.1172 22.9692 25.8545 22.9388C25.6828 22.9185 25.5616 22.959 25.5212 23.0503ZM26.2384 25.1603C26.3697 25.5356 26.3798 25.6979 26.299 25.7486C26.1071 25.8703 24.8645 26.0935 24.7938 26.0225C24.6625 25.8805 25.1878 25.0791 25.5616 24.8661C25.7636 24.7444 25.9656 24.6429 26.006 24.6429C26.0364 24.6429 26.1475 24.8762 26.2384 25.1603Z" fill="#B7B7B7"/>
<path d="M27.9254 23.0098C27.8446 23.0503 27.8042 23.2025 27.8244 23.3344C27.8547 23.5677 27.885 23.5778 28.9558 23.6285L30.0468 23.6793L28.9255 24.9472C27.9557 26.0428 27.8042 26.2558 27.8244 26.5195L27.8547 26.8239H30.9863V26.2152L28.7234 26.1138L29.8751 24.8154C30.5115 24.1053 31.0368 23.4561 31.0368 23.3851C31.0368 22.9388 30.9762 22.9185 29.4811 22.9185C28.7032 22.9185 27.9961 22.959 27.9254 23.0098Z" fill="#B7B7B7"/>
<path d="M32.6935 23.0503C32.6632 23.1315 32.7137 23.3648 32.7945 23.5778C32.8854 23.7908 32.9561 23.9734 32.9561 23.9937C32.9561 24.014 32.7844 24.1154 32.5824 24.227C32.0874 24.4806 31.5924 24.998 31.4004 25.4747C31.2287 25.8805 31.1782 26.8746 31.3297 26.8746C31.3701 26.8746 31.9257 26.763 32.5521 26.621C33.7239 26.3471 33.9663 26.3471 33.9663 26.6108C33.9663 26.7833 34.3906 26.9253 34.6128 26.8441C34.7341 26.7934 34.6431 26.4891 34.1987 25.3327C33.8956 24.5313 33.5723 23.6793 33.4713 23.4257C33.34 23.0605 33.2491 22.959 33.0268 22.9387C32.8551 22.9185 32.7339 22.959 32.6935 23.0503ZM33.4006 25.1603C33.542 25.5356 33.5622 25.6979 33.4713 25.7486C33.2794 25.8703 32.047 26.0935 31.9762 26.0225C31.8247 25.8703 32.35 25.0487 32.7238 24.8559C32.9359 24.7444 33.1279 24.6531 33.1683 24.6429C33.1986 24.6429 33.2996 24.8762 33.4006 25.1603Z" fill="#B7B7B7"/>
<path d="M20.3288 29.9076C20.3288 30.2525 20.4601 30.3235 21.1471 30.3235H21.642V33.4681H22.3492V30.3336L22.9856 30.3032C23.6119 30.2728 23.6119 30.2728 23.6119 29.9685V29.6641L21.9754 29.6337L20.3288 29.6134V29.9076Z" fill="#B7B7B7"/>
<path d="M24.0665 33.4681H24.3695C24.6726 33.4681 24.6726 33.4681 24.6726 32.8798C24.6726 32.2001 24.7332 32.0987 25.107 32.0277C25.3696 31.9769 25.4504 32.0378 25.9656 32.7073C26.5212 33.4275 26.5515 33.4478 27.0465 33.4884C27.3597 33.5087 27.9557 33.4377 28.6022 33.2957C29.8751 33.0116 29.9963 33.0116 30.0771 33.2652C30.1276 33.4174 30.2286 33.4681 30.4913 33.4681C30.6832 33.4681 30.8347 33.4275 30.8347 33.3869C30.8347 33.3362 30.7236 33.0319 30.5923 32.6972C30.461 32.3726 30.1478 31.5408 29.8852 30.851C29.4306 29.6844 29.3902 29.6134 29.1275 29.6134C28.7234 29.6134 28.7032 29.6844 28.9053 30.2221L29.0871 30.709L28.6931 30.8916C27.9557 31.2263 27.4708 31.9871 27.2789 33.0928C27.2587 33.2348 27.1173 33.1131 26.7132 32.616C26.0465 31.7741 26.0161 31.6929 26.3091 31.5002C26.6627 31.2669 26.9859 30.638 27.0162 30.1105L27.0465 29.6641L24.0665 29.6033V33.4681ZM26.2889 30.3844C26.2889 30.8307 25.4706 31.4393 24.8746 31.4393C24.7029 31.4393 24.6726 31.3683 24.6726 30.9017C24.6726 30.5974 24.7029 30.3235 24.7433 30.2931C24.7736 30.2525 25.1373 30.2221 25.5515 30.2221C26.1576 30.2221 26.2889 30.2525 26.2889 30.3844ZM29.4609 31.6625C29.774 32.4334 29.7841 32.4131 29.1477 32.545C28.8245 32.6059 28.4507 32.687 28.3194 32.7276C28.087 32.7885 28.0769 32.7682 28.1476 32.4537C28.2184 32.0682 28.4305 31.7944 28.8649 31.5306C29.2689 31.277 29.3094 31.2872 29.4609 31.6625Z" fill="#B7B7B7"/>
<path d="M31.3398 33.4681H31.9459V29.6134H31.3398V33.4681Z" fill="#B7B7B7"/>
<path d="M32.8248 29.6844C32.7844 29.7149 32.7541 30.5872 32.7541 31.6118V33.4681H33.4612V32.0885C33.4612 31.3277 33.5016 30.7293 33.542 30.7495C33.5925 30.7597 34.0471 31.2364 34.5522 31.7944C35.32 32.6363 35.4816 32.8696 35.4816 33.1334C35.4816 33.4478 35.5018 33.4681 35.8352 33.4681H36.1887L36.1685 31.5611L36.1382 29.6641H35.5321L35.4311 31.8552L34.4209 30.7394C33.6329 29.8467 33.3602 29.6134 33.1582 29.6134C33.0066 29.6134 32.8551 29.6439 32.8248 29.6844Z" fill="#B7B7B7"/>
<path d="M36.9969 33.4681H39.6234V32.8696L38.6435 32.8392C37.6939 32.8088 37.6535 32.7986 37.6232 32.5653C37.603 32.4436 37.6131 32.2204 37.6434 32.0885C37.704 31.8552 37.7444 31.8451 38.5627 31.8451H39.4213V31.2466L38.5425 31.2162C37.6939 31.1857 37.6535 31.1756 37.6232 30.9423C37.603 30.8205 37.6131 30.5974 37.6434 30.4655C37.704 30.2322 37.7343 30.2221 38.6637 30.2221H39.6234V29.6134H36.9969V33.4681Z" fill="#B7B7B7"/>
<path d="M40.2699 29.7453C40.2497 29.8163 40.2396 30.6684 40.2497 31.6422L40.28 33.4174L41.5326 33.4478C42.2195 33.458 42.8357 33.4275 42.8863 33.3768C42.9368 33.3261 42.9469 33.1942 42.9065 33.0725C42.8458 32.8798 42.765 32.8595 41.8862 32.8595H40.9265L40.9568 32.3726L40.9871 31.8958L42.7549 31.8349V31.2364H40.9265L40.9568 30.7495L40.9871 30.2728L41.8963 30.2423C42.3913 30.2221 42.8458 30.1713 42.8863 30.1308C42.9368 30.08 42.9469 29.9482 42.9065 29.8264C42.8458 29.6236 42.7751 29.6134 41.5831 29.6134C40.6537 29.6134 40.3103 29.6439 40.2699 29.7453Z" fill="#B7B7B7"/>
<path d="M20.6622 36.4707C20.6319 36.5518 20.6319 37.0286 20.6521 37.5257C20.7632 39.3516 21.6117 40.1631 23.4301 40.1631H24.0665V36.3084H23.3594V39.5747L23.0361 39.5037C22.3795 39.3718 22.0764 39.24 21.8138 38.9661C21.4299 38.5603 21.339 38.2256 21.339 37.2112V36.3084H21.0359C20.844 36.3084 20.7026 36.3693 20.6622 36.4707Z" fill="#B7B7B7"/>
<path d="M24.8746 40.1631H25.4706L25.501 39.3718C25.5313 38.6313 25.5414 38.5908 25.7838 38.5603C26.1273 38.5096 26.7334 38.7023 26.9455 38.9458C27.0465 39.0574 27.1779 39.3617 27.2486 39.6254C27.3597 40.0718 27.4001 40.1123 27.7032 40.1428L28.0365 40.1732L27.9658 39.7573C27.8749 39.1994 27.5617 38.5806 27.2486 38.3777L26.996 38.2154L27.2587 38.0024C27.592 37.7488 27.8951 37.0793 27.9052 36.633C27.9052 36.3388 27.8749 36.3084 27.6122 36.3084C27.2991 36.3084 27.2789 36.349 27.1476 36.988C27.0667 37.3938 26.6021 37.7995 26.1374 37.8908C25.5414 38.0024 25.4808 37.9314 25.4808 37.0692V36.3084H24.8746V40.1631Z" fill="#B7B7B7"/>
<path d="M28.6123 40.1631H29.2184V39.453C29.2184 38.8241 29.2386 38.7429 29.4104 38.7429C29.5215 38.7429 29.673 38.7125 29.7538 38.6821C29.865 38.6415 30.0973 38.8647 30.5014 39.3921L31.0873 40.1529L31.6429 40.1631C32.1177 40.1631 33.6329 39.8993 34.2896 39.6964C34.4209 39.6559 34.5017 39.7167 34.5724 39.8993C34.6532 40.1124 34.7341 40.1631 35.0371 40.1631C35.3402 40.1631 35.3907 40.1326 35.3402 39.9805C35.2998 39.8892 34.9664 39.0168 34.6027 38.0531L33.936 36.3084H33.5925C33.2087 36.3084 33.2087 36.3084 33.4309 36.9069C33.542 37.2011 33.5622 37.3735 33.4915 37.3938C33.441 37.4141 33.1784 37.5662 32.9258 37.7285C32.3702 38.0836 31.9762 38.7226 31.8752 39.4429L31.7944 39.9805L31.1782 39.1994L30.5519 38.4082L30.8549 38.1444C31.2388 37.83 31.5318 37.1909 31.5419 36.6837V36.3084H28.6123V40.1631ZM30.8347 37.059C30.8347 37.3025 30.4105 37.7488 29.9862 37.9416C29.2891 38.256 29.2184 38.2256 29.2184 37.5257V36.917H30.0266C30.6428 36.917 30.8347 36.9475 30.8347 37.059ZM34.0673 38.5705C34.1987 38.9255 34.2189 39.0675 34.138 39.098C33.7643 39.2197 32.6026 39.4327 32.5622 39.3921C32.5318 39.3718 32.6127 39.1385 32.7339 38.8951C32.9561 38.4386 33.4814 38.0024 33.7542 38.0531C33.8249 38.0734 33.9663 38.3067 34.0673 38.5705Z" fill="#B7B7B7"/>
<path d="M35.8251 36.4403C35.8049 36.5113 35.7948 37.3634 35.8049 38.3372L35.8352 40.1123L36.1685 40.1428L36.4918 40.1732V36.3084H36.1887C36.017 36.3084 35.8554 36.3693 35.8251 36.4403Z" fill="#B7B7B7"/>
<path d="M37.2999 40.1732L37.6333 40.1428L37.9565 40.1123L37.9869 38.7632C37.997 38.0328 38.0475 37.4242 38.0879 37.4344C38.1283 37.4344 38.5728 37.901 39.0677 38.4487C39.785 39.2501 39.987 39.5443 40.0072 39.8182C40.0375 40.1225 40.0678 40.1631 40.3406 40.1631H40.6335V36.3084H40.0274V37.3735C40.0274 37.9618 39.9971 38.4386 39.9567 38.4386C39.9062 38.4386 39.4415 37.9618 38.9162 37.3735C38.0778 36.4301 37.9262 36.3084 37.6333 36.3084H37.2999V40.1732Z" fill="#B7B7B7"/>
<path d="M41.5427 40.1732L44.1187 40.1123V39.8587C44.1187 39.6052 44.1086 39.6051 43.1388 39.5747L42.1488 39.5443V38.54H43.9672V37.9314H42.1488V36.9272L43.1388 36.8967C44.1086 36.8663 44.1187 36.8663 44.1187 36.6127V36.3591L41.5427 36.2982V40.1732Z" fill="#B7B7B7"/>
</svg>
